<svg xmlns="http://www.w3.org/2000/svg" width="16" height="16" fill="none" viewBox="0 0 16 16"><path fill="#9AA7B0" d="M2 9V10H1V9H2Z"/><path fill="#9AA7B0" d="M2 11L2 13H1L1 11H2Z"/><path fill="#9AA7B0" d="M3 3V4H1V3H3Z"/><path fill="#9AA7B0" d="M4 12V13H3V12H4Z"/><path fill="#9AA7B0" d="M5 3V4H4V3H5Z"/><path fill="#9AA7B0" d="M6 12V13H5V12H6Z"/><path fill="#9AA7B0" d="M7 3V4H6V3H7Z"/><path fill="#9AA7B0" d="M8 12V13H7V12H8Z"/><path fill="#9AA7B0" d="M9 3V4H8V3H9Z"/><path fill="#9AA7B0" d="M10 12V13H9V12H10Z"/><path fill="#9AA7B0" d="M11 3V4H10V3H11Z"/><path fill="#9AA7B0" d="M12 12V13H11V12H12Z"/><path fill="#9AA7B0" d="M13 3V4H12V3H13Z"/><path fill="#9AA7B0" d="M15 3V5H14V3H15Z"/><path fill="#9AA7B0" d="M15 10V11H14V10H15Z"/><path fill="#9AA7B0" d="M15 12V13H13V12H15Z"/><path fill="#9AA7B0" d="M2 7V8H1V7H2Z"/><path fill="#9AA7B0" d="M15 8V9H14V8H15Z"/><path fill="#9AA7B0" d="M2 5V6H1V5H2Z"/><path fill="#9AA7B0" d="M15 6V7H14V6H15Z"/><path fill="#9AA7B0" d="M10 7H12V9H10V7Z"/><path fill="#9AA7B0" d="M7 7H9V9H7V7Z"/><path fill="#9AA7B0" d="M4 7H6V9H4V7Z"/></svg>