<svg xmlns="http://www.w3.org/2000/svg" xmlns:svg="http://www.w3.org/2000/svg" width="64" height="64"><g class="layer"><g id="svg_8"><path id="svg_1" fill="#f91264" d="m22.655238,3.852213l-11.317185,11.349093l4.151903,4.163609l11.317185,-11.349093a7.295222,7.315791 0 0 1 10.067283,-0.204768l3.440325,3.40659l4.139528,-4.157404l-3.415575,-3.425205a13.185851,13.223028 0 0 0 -18.383465,0.217178z"/><path id="svg_2" fill="#17124b" d="m36.150471,48.491567l12.375271,-12.410162l1.132337,-1.13553a4.331345,4.343557 0 0 0 0,-6.11821l-1.132337,-1.13553l-12.282456,-12.279856l-1.12615,-1.13553a4.331345,4.343557 0 0 0 -6.101009,0l-1.107587,1.13553l-12.375271,12.410162l-1.132337,1.13553a4.331345,4.343557 0 0 0 0,6.11821l1.132337,1.11071l12.251518,12.304676l1.132337,1.13553a4.331345,4.343557 0 0 0 6.101009,0l1.132337,-1.13553zm-16.440547,-16.499311l12.375271,-12.410162l12.251518,12.286061l-12.375271,12.410162l-12.251518,-12.286061z"/><path id="svg_3" fill="#25cae0" d="m37.189994,55.937665a7.295222,7.315791 0 0 1 -10.067283,0.204768l0,0l-3.471263,-3.481051l-4.158091,4.169815l3.465076,3.450025a13.179663,13.216823 0 0 0 18.383465,-0.217178l11.379062,-11.411144l-4.151903,-4.163609l-11.379062,11.448375z"/><polygon id="svg_4" fill="#25cae0" points="52.721 40.319 52.721 40.319 54.107 41.709 52.721 40.319"/><polygon id="svg_5" fill="#f91264" points="7.155 19.396 9.234 21.481 7.155 19.396 7.155 19.396"/><path id="svg_6" fill="#fab12b" d="m8.108108,37.123859a7.289035,7.309586 0 0 1 -0.204192,-10.095667l3.434138,-3.44382l-4.176654,-4.18843l-3.434138,3.44382l0,0a13.179663,13.216823 0 0 0 0.216567,18.435296l11.317185,11.349093l4.158091,-4.132584l-11.310998,-11.367709z"/><path id="svg_7" fill="#22d382" d="m60.084245,22.610174l-11.335748,-11.349093l-4.13334,4.163609l11.298622,11.349093a7.30141,7.321996 0 0 1 0.204192,10.101872l-3.397012,3.44382l4.145716,4.157404l3.415575,-3.43141a13.185851,13.223028 0 0 0 -0.198004,-18.435296z"/></g></g></svg>